<svg width="44" height="44" viewBox="0 0 44 44" fill="none" xmlns="http://www.w3.org/2000/svg">
<path d="M18.3151 41.7633C17.2151 41.7633 16.1701 41.2134 15.4551 40.2417L13.2551 37.3083C13.2551 37.3267 13.1634 37.2716 13.1268 37.2716H12.4484C6.17843 37.2716 2.29175 35.5667 2.29175 27.115V19.7817C2.29175 12.0633 7.00343 10.0467 10.9634 9.69835C11.4034 9.64335 11.9168 9.625 12.4484 9.625H24.1818C30.8184 9.625 34.3384 13.145 34.3384 19.7817V27.115C34.3384 27.6467 34.3201 28.16 34.2467 28.655C33.9167 32.56 31.9001 37.2716 24.1818 37.2716H23.4484L21.1751 40.2417C20.4601 41.2134 19.4151 41.7633 18.3151 41.7633ZM12.4484 12.375C12.0268 12.375 11.6234 12.3933 11.2384 12.43C6.98509 12.7967 5.04175 15.125 5.04175 19.7817V27.115C5.04175 33.4033 6.9851 34.5216 12.4484 34.5216H13.1818C14.0068 34.5216 14.9417 34.98 15.4551 35.64L17.6551 38.5916C18.0584 39.1416 18.5718 39.1416 18.9751 38.5916L21.1751 35.6584C21.7067 34.9434 22.5501 34.5216 23.4484 34.5216H24.1818C28.8384 34.5216 31.1668 32.56 31.5151 28.38C31.5701 27.94 31.5884 27.5367 31.5884 27.115V19.7817C31.5884 14.6667 29.2968 12.375 24.1818 12.375H12.4484Z" fill="#A5BFE5"/>
<path d="M18.3155 26.015C17.2888 26.015 16.4822 25.19 16.4822 24.1817C16.4822 23.1733 17.3072 22.3483 18.3155 22.3483C19.3238 22.3483 20.1488 23.1733 20.1488 24.1817C20.1488 25.19 19.3422 26.015 18.3155 26.015Z" fill="#A5BFE5"/>
<path d="M24.1815 26.015C23.1548 26.015 22.3481 25.19 22.3481 24.1817C22.3481 23.1733 23.1731 22.3483 24.1815 22.3483C25.1898 22.3483 26.0148 23.1733 26.0148 24.1817C26.0148 25.19 25.1898 26.015 24.1815 26.015Z" fill="#A5BFE5"/>
<path d="M12.4664 26.015C11.4397 26.015 10.6331 25.19 10.6331 24.1817C10.6331 23.1733 11.4581 22.3483 12.4664 22.3483C13.4747 22.3483 14.2997 23.1733 14.2997 24.1817C14.2997 25.19 13.4747 26.015 12.4664 26.015Z" fill="#A5BFE5"/>
<path d="M32.8903 29.865C32.5237 29.865 32.157 29.7183 31.9003 29.4433C31.607 29.15 31.4787 28.7284 31.5337 28.325C31.5887 27.94 31.607 27.5367 31.607 27.115V19.7817C31.607 14.6667 29.3153 12.375 24.2003 12.375H12.467C12.0453 12.375 11.642 12.3934 11.257 12.43C10.8537 12.485 10.432 12.3383 10.1387 12.0633C9.84532 11.77 9.6803 11.3667 9.71697 10.9634C10.047 7.00337 12.082 2.29169 19.8003 2.29169H31.5337C38.1703 2.29169 41.6903 5.8117 41.6903 12.4484V19.7817C41.6903 27.5 36.9787 29.5167 33.0187 29.865C32.9637 29.865 32.927 29.865 32.8903 29.865ZM12.687 9.62502H24.182C30.8187 9.62502 34.3387 13.145 34.3387 19.7817V26.8767C37.4553 26.1067 38.922 23.815 38.922 19.7817V12.4484C38.922 7.33337 36.6303 5.04169 31.5153 5.04169H19.782C15.7487 5.04169 13.4754 6.50835 12.687 9.62502Z" fill="#A5BFE5"/>
</svg>
